HIERARCHY
ROOT Hips
{
	OFFSET 0.00000 0.00000 0.00000
	CHANNELS 6 Xposition Yposition Zposition Zrotation Yrotation Xrotation 
	JOINT LHipJoint
	{
		OFFSET 0 0 0
		CHANNELS 3 Zrotation Yrotation Xrotation
		JOINT LeftHip
		{
			OFFSET 1.66553 -1.82942 0.76350
			CHANNELS 3 Zrotation Yrotation Xrotation
			JOINT LeftKnee
			{
				OFFSET 2.41740 -6.64177 0.00000
				CHANNELS 3 Zrotation Yrotation Xrotation
				JOINT LeftAnkle
				{
					OFFSET 2.71614 -7.46254 0.00000
					CHANNELS 3 Zrotation Yrotation Xrotation
					JOINT LeftToe
					{
						OFFSET 0.08005 -0.21993 1.82495
						CHANNELS 3 Zrotation Yrotation Xrotation
						End Site
						{
							OFFSET 0.00000 -0.00000 0.93441
						}
					}
				}
			}
		}
	}
	JOINT RHipJoint
	{
		OFFSET 0 0 0
		CHANNELS 3 Zrotation Yrotation Xrotation
		JOINT RightHip
		{
			OFFSET -1.63725 -1.82942 0.76350
			CHANNELS 3 Zrotation Yrotation Xrotation
			JOINT RightKnee
			{
				OFFSET -2.40538 -6.60872 0.00000
				CHANNELS 3 Zrotation Yrotation Xrotation
				JOINT RightAnkle
				{
					OFFSET -2.73312 -7.50919 0.00000
					CHANNELS 3 Zrotation Yrotation Xrotation
					JOINT RightToe
					{
						OFFSET -0.15567 -0.42769 1.93504
						CHANNELS 3 Zrotation Yrotation Xrotation
						End Site
						{
							OFFSET -0.00000 -0.00000 1.00100
						}
					}
				}
			}
		}
	}
	JOINT lowerback
	{
		OFFSET 0 0 0
		CHANNELS 3 Zrotation Yrotation Xrotation
		JOINT Chest
		{
			OFFSET 0.00326 2.30118 -0.13017
			CHANNELS 3 Zrotation Yrotation Xrotation
			JOINT Chest2
			{
				OFFSET 0.02887 2.30677 0.00834
				CHANNELS 3 Zrotation Yrotation Xrotation
				JOINT lowerneck
				{
					OFFSET 0 0 0
					CHANNELS 3 Zrotation Yrotation Xrotation
					JOINT Neck
					{
						OFFSET 0.12946 1.68326 0.00713
						CHANNELS 3 Zrotation Yrotation Xrotation
						JOINT Head
						{
							OFFSET -0.24364 1.67243 -0.16079
							CHANNELS 3 Zrotation Yrotation Xrotation
							End Site
							{
								OFFSET -0.09229 1.70819 -0.06383
							}
						}
					}
				}
				JOINT LeftCollar
				{
					OFFSET 0 0 0
					CHANNELS 3 Zrotation Yrotation Xrotation
					JOINT LeftShoulder
					{
						OFFSET 3.28104 0.69567 -0.00556
CHANNELS 3 Zrotation Xrotation Yrotation
						JOINT LeftElbow
						{
OFFSET 0 -5.707060 -0.000000
CHANNELS 3 Zrotation Xrotation Yrotation
							JOINT LeftWrist
							{
OFFSET 0 -3.332430 0.000000
CHANNELS 3 Zrotation Xrotation Yrotation
								JOINT lhand
								{
									OFFSET 0 0 0
CHANNELS 3 Zrotation Xrotation Yrotation
									JOINT LFingers
									{
OFFSET 0 -0.792690 0.000000
CHANNELS 3 Zrotation Xrotation Yrotation
										End Site
										{
OFFSET 0 -0.639090 0.000000
										}
									}
								}
								JOINT LThumb
								{
OFFSET 0 0.000000 0.000000
CHANNELS 3 Zrotation Xrotation Yrotation
									End Site
									{
OFFSET 0 -0.648840 0.648840
									}
								}
							}
						}
					}
				}
				JOINT RightCollar
				{
					OFFSET 0 0 0
					CHANNELS 3 Zrotation Yrotation Xrotation
					JOINT RightShoulder
					{
						OFFSET -3.40955 0.64424 0.14010
CHANNELS 3 Zrotation Xrotation Yrotation
						JOINT RightElbow
						{
OFFSET 0 -5.881760 -0.000000
CHANNELS 3 Zrotation Xrotation Yrotation
							JOINT RightWrist
							{
OFFSET 0 -3.281560 0.000000
CHANNELS 3 Zrotation Xrotation Yrotation
								JOINT rhand
								{
									OFFSET 0 0 0
CHANNELS 3 Zrotation Xrotation Yrotation
									JOINT RFingers
									{
OFFSET 0 -0.863130 0.000000
CHANNELS 3 Zrotation Xrotation Yrotation
										End Site
										{
OFFSET 0 -0.695870 0.000000
										}
									}
								}
								JOINT RThumb
								{
OFFSET 0 0.000000 0.000000
CHANNELS 3 Zrotation Xrotation Yrotation
									End Site
									{
OFFSET 0 -0.706500 0.706500
									}
								}
							}
						}
					}
				}
			}
		}
	}
}
MOTION
Frames: 7
Frame Time: 0.008333333333333333
17.127500 18.075700 7.978900 0.612200 1.074200 6.960200 0.000000 0.000000 0.000000 -20.758600 -4.719200 -7.825300 0.847000 5.869900 16.407500 0.665700 -2.291200 -14.801900 3.345300 -11.234000 -33.073300 0.000000 0.000000 0.000000 18.583800 1.689000 -9.606800 -1.134100 -6.763600 19.016800 -0.600000 11.894800 -15.065600 -2.726100 -10.237800 29.750400 0.112900 -2.633500 4.755000 -0.668100 -3.552100 -2.945000 -0.411700 -1.775900 -5.772300 14.627800 5.926300 7.989600 -22.700000 4.663800 -34.822300 -12.256700 3.029100 -11.282200 -0.000000 0.000000 0.000000 56.379400 27.132600 -36.230200 157.211300 -33.857000 112.979800 -1.596900 -21.847400 -8.836400 0.000000 0.000000 0.000000 -7.125000 0.000000 0.000000 -24.024900 37.701100 -4.645100 -0.000000 0.000000 0.000000 -37.589400 23.704600 28.935100 -157.015700 -34.071600 -112.870500 -21.455800 -6.042400 -22.160000 0.000000 0.000000 0.000000 7.125000 0.000000 -0.000000 4.642400 6.410500 4.108900
17.118963 18.151137 8.005645 -0.056416 1.537312 8.017351 0.000000 0.000000 0.000000 -19.790783 -5.460317 -9.028462 0.887622 6.005510 16.800462 0.607090 -3.320892 -13.960968 2.418957 -9.688675 -27.974670 0.000000 0.000000 0.000000 19.294542 2.081138 -10.665990 -1.157634 -6.830922 19.215527 -0.547320 11.359503 -14.382307 -2.648208 -10.101780 29.307711 1.078150 -2.635809 3.783651 -0.780574 -3.504130 -3.668943 -1.097128 -1.799812 -6.045607 14.968899 5.967395 7.983201 -23.286529 4.807962 -33.061024 -12.304671 3.171873 -10.503014 0.000000 0.000000 0.000000 58.426249 24.480080 -22.523179 157.332138 -33.723584 113.047008 12.583241 -28.163630 -12.267412 0.000000 0.000000 0.000000 -7.125000 0.000000 0.000000 -13.128579 42.164486 -0.939695 0.000000 0.000000 0.000000 -36.459356 21.125771 12.105373 -158.567252 -32.329941 -113.720239 -23.782802 -10.148267 -18.423411 0.000000 0.000000 0.000000 7.125000 0.000000 0.000000 2.821178 9.996477 2.291626
17.122346 18.266296 8.073919 -0.116966 1.660206 9.572760 0.000000 0.000000 0.000000 -19.615925 -6.281373 -10.283480 0.860193 5.914393 16.536189 0.463673 -2.517660 -12.242238 2.503046 -9.841369 -28.466296 0.000000 0.000000 0.000000 19.155260 1.842868 -12.730189 -1.216682 -6.996743 19.705751 -0.311857 11.423000 -11.955406 -2.631355 -10.072644 29.212584 1.112871 -2.667304 2.053483 -0.668796 -3.556006 -4.381861 -1.061492 -1.831746 -5.801615 14.891735 6.116672 7.458478 -23.736561 4.960481 -31.712501 -12.240501 3.310683 -9.822476 0.000000 0.000000 0.000000 59.053752 25.595352 -24.824593 158.360478 -32.566808 113.609136 13.328374 -26.206788 -11.318217 0.000000 0.000000 0.000000 -7.125000 0.000000 0.000000 -12.250026 41.288418 -1.141780 0.000000 0.000000 0.000000 -38.308721 22.428039 16.661091 -158.943486 -31.894267 -113.920229 -21.564969 -4.287389 -19.316317 0.000000 0.000000 0.000000 7.125000 0.000000 0.000000 4.334462 9.376513 3.582796
17.114559 18.317527 8.110031 0.055748 1.540272 9.596565 0.000000 0.000000 0.000000 -19.894371 -6.142424 -9.798712 0.787318 5.664336 15.813588 0.382937 -1.799769 -11.202773 2.684821 -10.166383 -29.517215 0.000000 0.000000 0.000000 18.872509 1.219376 -13.480172 -1.332547 -7.309861 20.636568 -0.196657 11.914434 -10.873498 -2.354081 -9.567553 27.587461 0.620839 -2.549748 1.092685 -0.741673 -3.421571 -3.764740 -0.936860 -1.742033 -4.575527 14.900612 6.197736 7.039774 -23.486849 5.038423 -32.281898 -12.183822 3.298531 -9.940577 0.000000 0.000000 0.000000 58.947119 27.328391 -42.069194 158.457356 -32.456204 113.661350 8.282831 -23.016372 -8.802447 0.000000 0.000000 0.000000 -7.125000 0.000000 0.000000 -15.949232 38.399501 -2.674034 0.000000 0.000000 0.000000 -39.600916 25.420556 35.698107 -157.427479 -33.617404 -113.099546 -18.894719 -3.377333 -21.810509 0.000000 0.000000 0.000000 7.125000 0.000000 0.000000 6.228113 7.165033 5.436079
17.088741 18.258455 8.067491 -0.205227 1.604803 8.584330 0.000000 0.000000 0.000000 -19.457076 -5.669168 -9.575121 0.906695 6.067789 16.981207 0.481582 -2.947998 -12.428692 2.608455 -10.032064 -29.081065 0.000000 0.000000 0.000000 19.273959 1.577067 -11.988442 -1.264479 -7.127718 20.094406 -0.292023 11.785948 -11.899791 -2.101918 -9.074759 26.029820 0.395676 -2.439833 2.416297 -0.736719 -3.277328 -3.186241 -0.768394 -1.657671 -4.707548 14.992617 6.177567 6.166263 -23.098837 5.104650 -31.471951 -11.858766 3.262896 -9.467975 0.000000 0.000000 0.000000 59.122053 27.067670 -49.184068 157.293279 -33.766503 113.025356 1.553390 -16.456930 -6.953464 0.000000 0.000000 0.000000 -7.125000 0.000000 0.000000 -20.969398 36.183510 -4.815332 0.000000 0.000000 0.000000 -39.966314 25.775595 43.777382 -155.082385 -36.119551 -111.758623 -14.715018 0.948878 -25.062078 0.000000 0.000000 0.000000 7.125000 0.000000 0.000000 9.041357 4.449825 8.420609
17.067454 18.163684 7.977592 -0.308469 2.015937 7.142297 0.000000 0.000000 0.000000 -19.324789 -5.549510 -8.357612 0.919486 6.109376 17.102059 0.567095 -3.012955 -13.515479 3.186075 -10.989040 -32.244291 0.000000 0.000000 0.000000 19.498934 2.336171 -9.899957 -1.224462 -7.018233 19.769496 -0.454741 11.537165 -13.523425 -2.249041 -9.365180 26.945649 0.303912 -2.612515 4.470026 -0.905929 -3.519252 -2.643404 -0.789789 -1.772034 -5.319810 14.860710 6.081693 7.135395 -22.634272 5.253855 -30.848640 -11.633669 3.347849 -9.443097 0.000000 0.000000 0.000000 59.417837 25.886225 -38.103372 157.593223 -33.433725 113.191379 2.741970 -21.807911 -7.836968 0.000000 0.000000 0.000000 -7.125000 0.000000 0.000000 -20.247908 37.091232 -4.161469 0.000000 0.000000 0.000000 -39.830069 23.315870 36.098830 -156.166370 -34.987224 -112.388766 -19.106529 -3.214539 -22.463507 0.000000 0.000000 0.000000 7.125000 0.000000 0.000000 6.142203 6.461238 5.447853
17.054600 18.165534 7.899125 -0.146206 2.495715 7.176770 0.000000 0.000000 0.000000 -19.479228 -6.353556 -8.491512 0.914693 6.094060 17.057520 0.548184 -2.790495 -13.308636 2.775843 -10.322278 -30.027414 0.000000 0.000000 0.000000 19.443277 2.604158 -10.030607 -1.217604 -6.999337 19.713372 -0.484356 10.903513 -13.600702 -2.279841 -9.425328 27.135713 0.109620 -2.655355 5.701031 -0.978025 -3.608352 -3.278213 -0.669142 -1.807172 -6.689002 14.786539 5.690219 7.731289 -22.324991 5.074272 -28.437094 -11.242640 3.287966 -8.781874 0.000000 0.000000 0.000000 59.907391 23.950274 -25.337580 157.487291 -33.551659 113.132936 11.662028 -28.976900 -12.653402 0.000000 0.000000 0.000000 -7.125000 0.000000 0.000000 -14.036667 42.454714 -0.900226 0.000000 0.000000 0.000000 -38.454967 20.530382 19.923087 -157.662446 -33.356357 -113.229447 -20.540527 -8.096257 -18.751182 0.000000 0.000000 0.000000 7.125000 0.000000 0.000000 4.960466 10.111778 4.027589
